#!OML:ASF H:\IndianDance\Patient Classification 1\Patient 1\Session 1\dancer.ASF
:FULLY-SPECIFIED
:DEGREES
2715
root 24.223 14.6198 0.312309 -157.291 44.401 -150.221
lowerback 9.93037 2.40448 8.31095
upperback -4.23471 5.27854 5.4264
thorax -10.0034 2.366 0.21197
lowerneck -16.0382 -4.49726 -1.06488
upperneck 14.7821 -7.07322 7.49978
head 7.51557 -2.64467 1.84944
rclavicle 1.73266e-013 -1.11319e-014
rhumerus -1.06355 23.9971 -21.2646
rradius 66.1646
rwrist -28.1442
rhand -33.0035 -12.7996
rfingers 7.12502
rthumb -6.2176 -42.6884
lclavicle 1.73266e-013 -1.11319e-014
lhumerus 1.3263 -12.7833 10.1138
lradius 62.1559
lwrist 18.1324
lhand -28.5225 384.967
lfingers 7.12502
lthumb -1.89052 54.9386
rfemur -201.364 184.937 220.162
rtibia 45.5464
rfoot -17.1264 -356.316
rtoes 2.2325
lfemur -49.1903 5.14625 -25.4836
ltibia 54.598
lfoot 20.6322 -19.6577
ltoes 15.1723
2716
root 24.4365 14.5476 0.345621 -157.125 45.4999 -149.49
lowerback 9.91207 2.70426 8.05755
upperback -4.01138 5.60929 5.4558
thorax -9.74872 2.55076 0.329054
lowerneck -15.8058 -4.29721 -0.949455
upperneck 15.1464 -6.85464 7.61003
head 7.58572 -2.50967 1.89717
rclavicle -4.71617e-014 -2.8625e-014
rhumerus -1.24809 25.7562 -21.2731
rradius 68.5078
rwrist -21.9168
rhand -33.5591 -8.33253
rfingers 7.12502
rthumb -6.75395 -38.2048
lclavicle -4.71617e-014 -2.8625e-014
lhumerus 0.543642 -15.5557 9.00141
lradius 65.3737
lwrist 16.4573
lhand -25.9105 381.936
lfingers 7.12502
lthumb 0.632176 51.9148
rfemur -200.409 184.43 220.841
rtibia 46.1875
rfoot -18.2777 -355.815
rtoes 4.0522
lfemur -47.7543 5.76737 -26.9886
ltibia 51.1302
lfoot 23.7209 -17.823
ltoes 19.3419
2717
root 24.654 14.4815 0.374541 -157.131 46.5066 -148.999
lowerback 9.78487 2.98556 7.69383
upperback -3.81148 5.87736 5.4171
thorax -9.46371 2.70757 0.452252
lowerneck -15.6081 -4.16634 -0.920585
upperneck 15.6103 -6.7338 7.82643
head 7.70653 -2.40875 1.98268
rclavicle 6.41081e-014 1.59028e-015
rhumerus -1.67821 27.1458 -21.5225
rradius 70.9494
rwrist -15.3166
rhand -34.4224 -3.63046
rfingers 7.12502
rthumb -7.58731 -33.4744
lclavicle 6.41081e-014 1.59028e-015
lhumerus 0.0405524 -18.078 8.03651
lradius 68.9064
lwrist 14.6884
lhand -23.1347 378.453
lfingers 7.12502
lthumb 3.31299 48.4067
rfemur -199.464 184.271 221.381
rtibia 46.8631
rfoot -19.293 -355.308
rtoes 5.95503
lfemur -46.2527 6.39102 -28.5272
ltibia 47.8391
lfoot 26.5754 -15.8884
ltoes 23.1798
2718
root 24.8744 14.4204 0.399234 -157.241 47.3989 -148.669
lowerback 9.5538 3.23207 7.29944
upperback -3.63571 6.08007 5.3308
thorax -9.14803 2.83196 0.560923
lowerneck -15.4826 -4.09164 -0.962618
upperneck 16.1915 -6.6944 8.11455
head 7.88815 -2.33491 2.0945
rclavicle -4.37823e-014 -5.96354e-014
rhumerus -2.36384 28.1511 -22.0397
rradius 73.5511
rwrist -8.63668
rhand -35.462 1.13988
rfingers 7.12502
rthumb -8.59065 -28.6653
lclavicle -4.37823e-014 -5.96354e-014
lhumerus -0.248865 -20.3106 7.20705
lradius 72.7402
lwrist 13.1019
lhand -20.1562 374.713
lfingers 7.12502
lthumb 6.18904 44.6022
rfemur -198.55 184.503 221.818
rtibia 47.5653
rfoot -20.194 -354.679
rtoes 7.89654
lfemur -44.7563 6.95189 -29.9738
ltibia 44.8583
lfoot 29.0399 -14.019
ltoes 26.3574
2719
root 25.0961 14.3641 0.420968 -157.376 48.1661 -148.405
lowerback 9.24184 3.43142 6.93656
upperback -3.4821 6.2189 5.22357
thorax -8.80982 2.92275 0.647998
lowerneck -15.4415 -4.05505 -1.05746
upperneck 16.8691 -6.71088 8.44084
head 8.12391 -2.27873 2.22228
rclavicle -5.06901e-015 3.18055e-014
rhumerus -3.29902 28.7833 -22.8215
rradius 76.3735
rwrist -2.22423
rhand -36.5259 6.09433
rfingers 7.12502
rthumb -9.61722 -23.6662
lclavicle -5.06901e-015 3.18055e-014
lhumerus -0.421457 -22.2185 6.53251
lradius 76.8802
lwrist 11.9098
lhand -16.8214 370.871
lfingers 7.12502
lthumb 9.40766 40.6408
rfemur -197.682 185.107 222.191
rtibia 48.2694
rfoot -20.9724 -353.828
rtoes 9.922
lfemur -43.3392 7.36873 -31.1849
ltibia 42.317
lfoot 31.0506 -12.3835
ltoes 28.7541
